<?xml version="1.0" standalone="no"?>
<!DOCTYPE svg PUBLIC "-//W3C//DTD SVG 20010904//EN"
 "http://www.w3.org/TR/2001/REC-SVG-20010904/DTD/svg10.dtd">
<svg version="1.0" xmlns="http://www.w3.org/2000/svg"
 width="1395.000000pt" height="1395.000000pt" viewBox="0 0 1395.000000 1395.000000"
 preserveAspectRatio="xMidYMid meet">

<g transform="translate(0.000000,1395.000000) scale(0.100000,-0.100000)"
fill="#000000" stroke="none">
<path d="M3275 13943 c-389 -33 -703 -103 -1027 -229 -688 -267 -1258 -726
-1664 -1339 -300 -454 -473 -914 -557 -1485 l-21 -145 -4 -3680 c-3 -3743 -2
-3804 34 -4055 161 -1118 848 -2088 1848 -2610 368 -193 730 -307 1176 -373
l145 -21 3680 -4 c3743 -3 3804 -2 4055 34 1118 161 2088 848 2610 1848 193
368 307 730 373 1176 l21 145 4 3680 c3 3743 2 3804 -34 4055 -144 995 -699
1870 -1539 2426 -454 300 -914 473 -1485 557 l-145 21 -3715 2 c-2043 0 -3733
-1 -3755 -3z m6397 -4384 c122 -26 248 -121 302 -227 60 -118 56 29 56 -2322
0 -1909 3 -2274 23 -2515 l2 -30 -511 -3 c-453 -2 -512 0 -518 13 -3 9 -11 85
-18 169 l-12 153 -36 -46 c-134 -169 -394 -303 -670 -347 -144 -23 -442 -15
-585 16 -624 133 -1087 556 -1283 1171 -71 222 -97 421 -89 704 7 302 56 536
160 773 159 362 416 635 752 802 250 124 432 169 721 177 435 13 750 -81 943
-282 l61 -63 0 934 0 934 325 0 c202 0 344 -4 377 -11z m-3938 -105 c237 -61
421 -259 463 -499 52 -296 -121 -589 -410 -694 -64 -23 -87 -26 -207 -26 -162
0 -229 19 -345 97 -94 62 -156 132 -206 233 -66 134 -84 276 -54 419 46 216
233 413 448 471 72 19 235 19 311 -1z m5388 -16 c184 -69 317 -198 385 -376
35 -90 44 -265 18 -361 -46 -178 -166 -326 -330 -406 -95 -47 -172 -65 -280
-65 -175 0 -314 57 -435 179 -87 88 -132 165 -160 277 -86 336 108 676 440
768 87 25 276 16 362 -16z m-7270 -486 c84 -41 167 -128 200 -209 22 -56 23
-68 26 -415 l3 -358 340 0 339 0 0 -470 0 -470 -340 0 -341 0 3 -717 c3 -535
7 -727 16 -754 30 -89 92 -150 187 -185 64 -23 286 -24 393 -2 l72 15 -2 -446
-3 -446 -65 -23 c-141 -51 -248 -66 -480 -66 -185 0 -229 3 -318 22 -498 108
-795 435 -852 937 -6 53 -10 413 -10 878 l0 787 -310 0 -310 0 0 470 0 470
128 0 c71 0 157 7 194 14 150 32 270 125 333 258 55 115 65 191 65 489 l0 260
333 -3 332 -3 67 -33z m2023 -1011 c83 -33 183 -133 216 -216 l24 -60 3 -1602
2 -1603 -535 0 -535 0 0 1756 0 1755 383 -3 c376 -3 383 -4 442 -27z m5347 -8
c125 -59 205 -162 228 -293 7 -46 10 -521 8 -1620 l-3 -1555 -532 -3 -533 -2
0 1755 0 1756 383 -3 382 -3 67 -32z"/>
<path d="M8075 7079 c-177 -26 -306 -89 -431 -214 -78 -77 -98 -105 -137 -185
-80 -165 -114 -359 -97 -559 17 -186 59 -317 145 -447 72 -108 157 -184 270
-240 131 -64 224 -86 370 -86 316 1 565 153 696 427 121 250 125 616 10 869
-86 190 -240 330 -433 397 -132 45 -260 57 -393 38z"/>
</g>
</svg>
